<svg xmlns="http://www.w3.org/2000/svg" version="1.1" xmlns:xlink="http://www.w3.org/1999/xlink" xmlns:svgjs="http://svgjs.dev/svgjs" width="1000" height="280" viewBox="0 0 1000 280"><g transform="matrix(1,0,0,1,-0.6060416749817819,0.04684832153114371)"><svg viewBox="0 0 396 111" data-background-color="#ffffff" preserveAspectRatio="xMidYMid meet" height="280" width="1000" xmlns="http://www.w3.org/2000/svg" xmlns:xlink="http://www.w3.org/1999/xlink"><g id="tight-bounds" transform="matrix(1,0,0,1,0.2399926007787485,-0.018572013178413727)"><svg viewBox="0 0 395.52 111.03714402635684" height="111.03714402635684" width="395.52"><g><svg viewBox="0 0 685.401512673053 192.41764380704043" height="111.03714402635684" width="395.52"><g><rect width="12.556021485909778" height="139.9274471968709" x="428.38916619348106" y="26.245098305084767" fill="#ff5c40" opacity="1" stroke-width="0" stroke="transparent" fill-opacity="1" class="rect-o-0" data-fill-palette-color="primary" rx="1%" id="o-0" data-palette-color="#ff5c40"></rect></g><g transform="matrix(1,0,0,1,0,26.593176531942646)"><svg viewBox="0 0 395.52 139.23129074315514" height="139.23129074315514" width="395.52"><g id="textblocktransform"><svg viewBox="0 0 395.52 139.23129074315514" height="139.23129074315514" width="395.52" id="textblock"><g><svg viewBox="0 0 395.52 139.23129074315514" height="139.23129074315514" width="395.52"><g transform="matrix(1,0,0,1,0,0)"><svg width="395.52" viewBox="0.9500000476837158 -40.5 111.63999938964844 40.5" height="139.23129074315514" data-palette-color="#ff5c40"><g transform="matrix(1,0,0,1,0,0)"><g><svg width="0" viewBox="0 0 0 0" height="8.998000000000001" data-palette-color="#ff5c40" id="scriptelement" x="112.58999633789062" y="-40.5"><path d="M0 0" opacity="1" transform="matrix(1,0,0,1,0,0)" fill="#ff5c40" class="undefined-123" id="p-123"></path></svg></g></g><g class="undefined-text-0" data-fill-palette-color="primary" id="text-0"><path d="M6.25 0L0.95 0 9.55-40.5 15-40.5 23.65 0 18.3 0 16.45-10.2 8.2-10.2 6.25 0ZM12.3-32.5L8.95-14.25 15.7-14.25 12.3-32.5ZM33.6 0L28.05 0 28.05-40.5 33.6-40.5 33.6 0Z" fill="#ff5c40" data-fill-palette-color="primary"></path><path d="M46 0L36.75 0 36.75-40.5 45.55-40.5Q50.05-40.5 52.67-39.13 55.3-37.75 56.43-35 57.55-32.25 57.55-28.15L57.55-28.15 57.55-13.25Q57.55-8.95 56.43-6 55.3-3.05 52.78-1.53 50.25 0 46 0L46 0ZM42.4-36.3L42.4-4.05 45.6-4.05Q48.7-4.05 50-5.25 51.3-6.45 51.58-8.75 51.85-11.05 51.85-14.3L51.85-14.3 51.85-27.45Q51.85-30.6 51.45-32.55 51.05-34.5 49.7-35.4 48.35-36.3 45.45-36.3L45.45-36.3 42.4-36.3ZM68.95 0L63.4 0 63.4-40.5 68.95-40.5 68.95 0ZM91.3 0L75.5 0 75.5-40.5 91.2-40.5 91.2-36.3 81.15-36.3 81.15-22.9 89.3-22.9 89.3-18.9 81.15-18.9 81.15-4.05 91.3-4.05 91.3 0ZM105.94 0L100.29 0 100.29-36.3 93.44-36.3 93.44-40.5 112.59-40.5 112.59-36.3 105.94-36.3 105.94 0Z" fill="#5dd8a1" data-fill-palette-color="accent"></path></g></svg></g></svg></g></svg></g></svg></g><g transform="matrix(1,0,0,1,473.8143538728719,0)"><svg viewBox="0 0 211.58715880018107 192.41764380704043" height="192.41764380704043" width="211.58715880018107"><g><svg xmlns="http://www.w3.org/2000/svg" xmlns:xlink="http://www.w3.org/1999/xlink" version="1.1" x="0" y="0" viewBox="12.877257347106934 35.09613800048828 487.0279541015625 442.90386962890625" style="enable-background:new 0 0 512 512;" xml:space="preserve" height="192.41764380704043" width="211.58715880018107" class="icon-icon-0" data-fill-palette-color="accent" id="icon-0"><g fill="#5dd8a1" data-fill-palette-color="accent"><g fill="#5dd8a1" data-fill-palette-color="accent"><g fill="#5dd8a1" data-fill-palette-color="accent"><path d="M359.5 477.8H189.4c-8.9 0-16.1-7.2-16.1-16.1V418c0-13.8-1-27.8-2.9-41.5-0.3-2.2 1.2-4.2 3.4-4.5 2.2-0.3 4.2 1.2 4.5 3.4 2 14.1 3 28.5 3 42.6v43.8c0 4.5 3.6 8.1 8.1 8.1h170.1c4.5 0 8.1-3.6 8.1-8.1v-42.6c0-2.2 1.8-4 4-4h47.5c16.8 0 30.5-13.7 30.5-30.5V324c0-2.2 1.7-4 3.9-4l27.8-0.5c3.8-0.1 7.2-2.1 9.1-5.3 1.9-3.3 2-7.2 0.3-10.5l-30.4-57.3c-7-13.4-10.7-28.3-10.7-43.3 0-43-16.8-83.4-47.4-113.7C371.7 59.1 331.1 42.6 288.1 43c-31.3 0.2-61.4 9.4-87.2 26.6-1.8 1.2-4.3 0.7-5.5-1.1-1.2-1.8-0.7-4.3 1.1-5.5 27-18 58.7-27.7 91.5-27.9 45.2-0.3 87.7 16.9 119.8 48.7 32.1 31.8 49.7 74.2 49.7 119.4 0 13.7 3.4 27.3 9.8 39.5l30.4 57.3c3.1 5.8 2.9 12.7-0.4 18.4-3.4 5.7-9.3 9.2-15.9 9.3l-23.9 0.4v56.6c0 21.2-17.3 38.5-38.5 38.5h-43.5v38.6C375.6 470.6 368.4 477.8 359.5 477.8z" fill="#5dd8a1" data-fill-palette-color="accent"></path></g><g fill="#5dd8a1" data-fill-palette-color="accent"><path d="M294.1 163c-0.8 0-1.6-0.2-2.3-0.8-1.8-1.3-2.2-3.8-0.9-5.6l13-18-2.1-98.6c0-2.2 1.7-4 3.9-4.1 0 0 0.1 0 0.1 0 2.2 0 4 1.7 4 3.9l2.2 100c0 0.9-0.2 1.7-0.8 2.4l-13.8 19.1C296.5 162.5 295.3 163 294.1 163z" fill="#5dd8a1" data-fill-palette-color="accent"></path></g><g fill="#5dd8a1" data-fill-palette-color="accent"><path d="M375.5 175.6c-1.3 0-2.5-0.6-3.3-1.7L360 156.1c-0.5-0.7-0.7-1.5-0.7-2.3l1.1-96.8c0-2.2 1.8-4 4-4 0 0 0 0 0 0 2.2 0 4 1.8 4 4l-1 95.5 11.4 16.8c1.2 1.8 0.8 4.3-1.1 5.6C377 175.4 376.2 175.6 375.5 175.6z" fill="#5dd8a1" data-fill-palette-color="accent"></path></g><g fill="#5dd8a1" data-fill-palette-color="accent"><path d="M305.7 478c-2.2 0-3.9-1.7-4-3.9l-2.2-83.3c-0.1-2.2 1.7-4 3.9-4.1 2.2-0.1 4 1.7 4.1 3.9l2.2 83.3c0.1 2.2-1.7 4-3.9 4.1C305.7 478 305.7 478 305.7 478z" fill="#5dd8a1" data-fill-palette-color="accent"></path></g><g fill="#5dd8a1" data-fill-palette-color="accent"><path d="M270.6 476.5c-2.2 0-4-1.7-4-3.9l-0.7-41.7L252.7 419c-1.6-1.5-1.8-4-0.3-5.6 1.5-1.6 4-1.8 5.6-0.3l14.5 13c0.8 0.7 1.3 1.8 1.3 2.9l0.7 43.4C274.6 474.7 272.9 476.5 270.6 476.5 270.6 476.5 270.6 476.5 270.6 476.5z" fill="#5dd8a1" data-fill-palette-color="accent"></path></g><g fill="#5dd8a1" data-fill-palette-color="accent"><path d="M147.3 347.2h-40.1c-2.2 0-4-1.8-4-4v-22c-17.1-4.4-32.6-13.3-45.1-26.1l-19.1 11.1c-0.9 0.5-2 0.7-3 0.4-1-0.3-1.9-0.9-2.4-1.9l-20-34.7c-1.1-1.9-0.4-4.3 1.5-5.5L34 253.4c-2.4-8.4-3.6-17.1-3.6-26 0-8.9 1.2-17.6 3.6-26.1l-19.1-11c-1.9-1.1-2.6-3.5-1.5-5.5l20-34.7c1.1-1.9 3.5-2.6 5.5-1.5l19.1 11c12.5-12.7 27.9-21.7 45.1-26.1v-22.1c0-2.2 1.8-4 4-4h40.1c2.2 0 4 1.8 4 4v22.1c17.1 4.4 32.6 13.3 45.1 26.1l19.1-11c1.9-1.1 4.4-0.4 5.5 1.5l20 34.7c1.1 1.9 0.4 4.4-1.5 5.5l-19.1 11c2.4 8.5 3.6 17.2 3.6 26.1 0 8.9-1.2 17.6-3.6 26l19.1 11.1c1.9 1.1 2.6 3.5 1.5 5.5l-20 34.7c-0.5 0.9-1.4 1.6-2.4 1.9-1 0.3-2.1 0.1-3-0.4l-19.1-11.1c-12.5 12.8-28 21.7-45.1 26.1v22C151.3 345.4 149.5 347.2 147.3 347.2zM111.2 339.2h32.1V318c0-1.9 1.3-3.5 3.1-3.9 17.8-3.9 33.8-13.2 46.3-26.8 1.3-1.4 3.3-1.7 4.9-0.8l18.4 10.7 16-27.8-18.4-10.7c-1.6-0.9-2.4-2.9-1.8-4.7 2.7-8.6 4.1-17.5 4.1-26.7 0-9.1-1.4-18.2-4.1-26.8-0.6-1.8 0.2-3.7 1.8-4.7l18.3-10.6-16-27.8-18.4 10.6c-1.6 0.9-3.7 0.6-4.9-0.8-12.4-13.6-28.4-22.8-46.3-26.7-1.8-0.4-3.1-2-3.1-3.9v-21.2h-32.1v21.2c0 1.9-1.3 3.5-3.1 3.9-17.8 3.9-33.8 13.2-46.3 26.7-1.3 1.4-3.3 1.7-4.9 0.8l-18.4-10.6-16 27.8 18.3 10.6c1.6 0.9 2.4 2.9 1.8 4.7-2.7 8.6-4.1 17.6-4.1 26.8 0 9.2 1.4 18.1 4.1 26.7 0.6 1.8-0.2 3.7-1.8 4.7l-18.4 10.7 16 27.8 18.4-10.7c1.6-0.9 3.7-0.6 5 0.8 12.5 13.6 28.5 22.9 46.3 26.8 1.8 0.4 3.1 2 3.1 3.9L111.2 339.2 111.2 339.2z" fill="#5dd8a1" data-fill-palette-color="accent"></path></g><g fill="#5dd8a1" data-fill-palette-color="accent"><path d="M127.2 290.6c-34.9 0-63.3-28.4-63.3-63.3 0-34.9 28.4-63.4 63.3-63.4 34.9 0 63.3 28.4 63.3 63.4C190.5 262.3 162.1 290.6 127.2 290.6zM127.2 172C96.8 172 72 196.9 72 227.4c0 30.5 24.8 55.3 55.3 55.3 30.5 0 55.3-24.8 55.3-55.3C182.5 196.9 157.7 172 127.2 172z" fill="#5dd8a1" data-fill-palette-color="accent"></path></g><g fill="#5dd8a1" data-fill-palette-color="accent"><path d="M127.2 264.2c-20.3 0-36.8-16.5-36.8-36.8 0-20.3 16.5-36.8 36.8-36.8 20.3 0 36.8 16.5 36.8 36.8C164 247.7 147.5 264.2 127.2 264.2zM127.2 198.6c-15.9 0-28.8 12.9-28.8 28.8 0 15.9 12.9 28.8 28.8 28.8 15.9 0 28.8-12.9 28.8-28.8C156 211.5 143.1 198.6 127.2 198.6z" fill="#5dd8a1" data-fill-palette-color="accent"></path></g><g fill="#5dd8a1" data-fill-palette-color="accent"><path d="M283.7 199.2c-13 0-23.6-10.6-23.6-23.6 0-13 10.6-23.6 23.6-23.6 13 0 23.5 10.6 23.5 23.6C307.2 188.6 296.7 199.2 283.7 199.2zM283.7 160.1c-8.6 0-15.6 7-15.6 15.6 0 8.6 7 15.6 15.6 15.6 8.5 0 15.5-7 15.5-15.6C299.2 167 292.3 160.1 283.7 160.1z" fill="#5dd8a1" data-fill-palette-color="accent"></path></g><g fill="#5dd8a1" data-fill-palette-color="accent"><path d="M386.3 211.5c-13 0-23.5-10.6-23.5-23.6 0-13 10.5-23.6 23.5-23.6 13 0 23.6 10.6 23.6 23.6C409.8 200.9 399.3 211.5 386.3 211.5zM386.3 172.3c-8.5 0-15.5 7-15.5 15.6 0 8.6 7 15.6 15.5 15.6 8.6 0 15.6-7 15.6-15.6C401.8 179.3 394.9 172.3 386.3 172.3z" fill="#5dd8a1" data-fill-palette-color="accent"></path></g><g fill="#5dd8a1" data-fill-palette-color="accent"><path d="M303.5 396.7c-13 0-23.6-10.5-23.6-23.5 0-13 10.6-23.6 23.6-23.6 13 0 23.5 10.6 23.5 23.6C327 386.1 316.5 396.7 303.5 396.7zM303.5 357.6c-8.6 0-15.6 7-15.6 15.6 0 8.6 7 15.5 15.6 15.5 8.5 0 15.5-7 15.5-15.5C319 364.6 312.1 357.6 303.5 357.6z" fill="#5dd8a1" data-fill-palette-color="accent"></path></g><g fill="#5dd8a1" data-fill-palette-color="accent"><path d="M242.7 425.6c-13 0-23.5-10.6-23.5-23.6 0-13 10.5-23.5 23.5-23.5 13 0 23.6 10.5 23.6 23.5C266.3 415 255.7 425.6 242.7 425.6zM242.7 386.5c-8.5 0-15.5 7-15.5 15.5 0 8.6 7 15.6 15.5 15.6 8.6 0 15.6-7 15.6-15.6C258.3 393.5 251.3 386.5 242.7 386.5z" fill="#5dd8a1" data-fill-palette-color="accent"></path></g></g></g></svg></g></svg></g></svg></g><defs></defs></svg><rect width="395.52" height="111.03714402635684" fill="none" stroke="none" visibility="hidden"></rect></g></svg></g></svg>